<svg width="229" height="229" viewBox="0 0 229 229" fill="none" xmlns="http://www.w3.org/2000/svg">
<g clip-path="url(#clip0_831_31)">
<path d="M7.08047 222.99C2.17725 227.198 3.40119 229.809 9.7789 228.773C32.5702 225.069 76.1979 216.86 99.0319 205.203C118.531 195.249 125.448 208.798 118.876 219.203C116.442 223.058 118.067 225.237 122.462 224.028C147.628 217.109 200.862 196.521 215.256 143.86C215.913 141.457 214.801 138.257 212.812 136.757L211.988 136.135C210.333 138.108 208.592 140.017 206.754 141.855C198.725 149.884 189.373 156.189 178.957 160.594C168.171 165.157 156.717 167.47 144.913 167.47C133.11 167.47 121.656 165.157 110.869 160.594C100.454 156.189 91.1018 149.884 83.0722 141.855C75.0427 133.826 68.7379 124.473 64.3328 114.058C59.7704 103.271 57.4569 91.8172 57.4569 80.0136C57.4569 68.2103 59.7704 56.7562 64.3328 45.9694C66.5745 40.669 69.3112 35.6457 72.5139 30.9303L71.8017 30.393C69.6061 28.7369 66.1513 28.8999 64.1199 30.7537C52.5398 41.3229 18.5571 79.5353 10.5397 169.617C10.1448 174.054 12.8288 175.644 16.5438 173.186C21.4701 169.926 28.1373 167.348 33.0981 172.352C40.3902 179.708 25.0343 207.583 7.08047 222.99Z" fill="url(#paint0_radial_831_31)"/>
<path d="M144.914 160.028C169.425 160.028 191.358 149.003 206.035 131.646C217.819 117.71 224.928 99.6935 224.928 80.0141C224.928 35.8236 189.104 0 144.914 0C117.232 0 92.8353 14.0578 78.4689 35.4227C69.9008 48.1647 64.8991 63.5052 64.8991 80.0143C64.8996 124.205 100.723 160.028 144.914 160.028ZM217.036 87.0683C217.07 87.099 217.105 87.1268 217.14 87.1551C216.433 94.4343 214.642 101.508 211.786 108.261C210.86 110.449 209.832 112.582 208.706 114.654C208.657 114.658 208.607 114.661 208.557 114.669L187.653 117.781L179.514 118.992L166.12 101.538L165.768 101.079L174.498 74.2104L195.547 67.2942L217.036 87.0683ZM148.635 27.9059L174.06 13.6673C174.103 13.6432 174.144 13.6165 174.184 13.5894C182.414 17.2193 189.828 22.2954 196.23 28.6975C197.158 29.6255 198.055 30.5768 198.928 31.5467C198.917 31.5874 198.905 31.6276 198.897 31.6693L193.289 60.2025L171.522 67.3544L148.634 50.7253L148.635 27.9059ZM160.657 106.641L173.76 123.716L162.444 150.328C162.424 150.375 162.408 150.422 162.392 150.469C156.715 151.874 150.869 152.587 144.913 152.587C138.957 152.587 133.112 151.874 127.435 150.469C127.419 150.422 127.403 150.375 127.383 150.328L116.068 123.716L129.171 106.641H160.657V106.641ZM93.5973 28.6977C99.9996 22.2954 107.413 17.2196 115.643 13.5897C115.684 13.6164 115.725 13.6435 115.767 13.6676L141.193 27.9056V50.725L119.577 66.4296L118.304 67.3542L96.5386 60.2023L93.9654 47.111L90.9306 31.6693C90.9225 31.6278 90.9108 31.5874 90.9001 31.5467C91.7718 30.577 92.6691 29.6257 93.5973 28.6977ZM81.1215 114.654C79.9953 112.581 78.9673 110.449 78.0415 108.26C75.1853 101.507 73.394 94.4343 72.6873 87.1549C72.7225 87.1266 72.758 87.099 72.7915 87.068L94.2802 67.2937L115.33 74.2099L124.059 101.078L110.313 118.991L81.2703 114.669C81.2207 114.661 81.1711 114.657 81.1215 114.654Z" fill="url(#paint1_radial_831_31)"/>
</g>
<defs>
<radialGradient id="paint0_radial_831_31" cx="0" cy="0" r="1" gradientUnits="userSpaceOnUse" gradientTransform="translate(-18.5 260.5) rotate(-46.2103) scale(301.295 364.456)">
<stop stop-color="#FF7A00"/>
<stop offset="0.994792" stop-color="#F7DD43"/>
</radialGradient>
<radialGradient id="paint1_radial_831_31" cx="0" cy="0" r="1" gradientUnits="userSpaceOnUse" gradientTransform="translate(191 16) rotate(129.82) scale(250.632 250.633)">
<stop stop-color="#F7DD43"/>
<stop offset="1" stop-color="#FF7A00"/>
</radialGradient>
<clipPath id="clip0_831_31">
<rect width="229" height="229" fill="white"/>
</clipPath>
</defs>
</svg>
